refGRF
version=1
nRows=34
nColumns=19
inDegrees=no
endheader
time	ground_force_r_vx	ground_force_r_vy	ground_force_r_vz	ground_force_l_vx	ground_force_l_vy	ground_force_l_vz	ground_force_r_px	ground_force_r_py	ground_force_r_pz	ground_force_l_px	ground_force_l_py	ground_force_l_pz	ground_torque_r_x	ground_torque_r_y	ground_torque_r_z	ground_torque_l_x	ground_torque_l_y	ground_torque_l_z
      0.37700000	    -96.53094269	   1548.09648950	    -88.47913401	      0.00000000	      0.00000000	      0.00000000	     -0.82067749	      0.00000000	      0.53510615	      2.70600000	      0.00000000	      0.60000000	     -0.08445975	     -1.87355371	      0.05611440	      0.00000000	      0.00000000	      0.00000000
      0.37800000	   -114.18114245	   1589.87158666	    -89.53553435	      0.00000000	      0.00000000	      0.00000000	     -0.81978882	      0.00000000	      0.53453278	      2.70600000	      0.00000000	      0.60000000	     -0.12341385	     -1.01374115	      0.01265075	      0.00000000	      0.00000000	      0.00000000
      0.37900000	   -133.75009887	   1630.53123451	    -90.47476504	      0.00000000	      0.00000000	      0.00000000	     -0.81885057	      0.00000000	      0.53397085	      2.70600000	      0.00000000	      0.60000000	     -0.17081710	     -0.04665381	     -0.03004926	      0.00000000	      0.00000000	      0.00000000
      0.38000000	   -153.93492173	   1669.55669013	    -90.87137424	      0.00000000	      0.00000000	      0.00000000	     -0.81788536	      0.00000000	      0.53340836	      2.70600000	      0.00000000	      0.60000000	     -0.23182855	      1.01642740	     -0.07218747	      0.00000000	      0.00000000	      0.00000000
      0.38100000	   -173.53483535	   1706.47586068	    -90.34610152	      0.00000000	      0.00000000	      0.00000000	     -0.81691323	      0.00000000	      0.53283674	      2.70600000	      0.00000000	      0.60000000	     -0.30957149	      2.16045115	     -0.11315169	      0.00000000	      0.00000000	      0.00000000
      0.38200000	   -191.50223659	   1740.87266349	    -88.58396780	      0.00000000	      0.00000000	      0.00000000	     -0.81595045	      0.00000000	      0.53225044	      2.70600000	      0.00000000	      0.60000000	     -0.40499883	      3.36816446	     -0.15157807	      0.00000000	      0.00000000	      0.00000000
      0.38300000	   -206.98094009	   1772.41897344	    -85.35122635	      0.00000000	      0.00000000	      0.00000000	     -0.81500944	      0.00000000	      0.53164606	      2.70600000	      0.00000000	      0.60000000	     -0.51699124	      4.62188632	     -0.18551617	      0.00000000	      0.00000000	      0.00000000
      0.38400000	   -219.33532216	   1800.90632657	    -80.50727254	      0.00000000	      0.00000000	      0.00000000	     -0.81409898	      0.00000000	      0.53102295	      2.70600000	      0.00000000	      0.60000000	     -0.64264614	      5.90488242	     -0.21264274	      0.00000000	      0.00000000	      0.00000000
      0.38500000	   -228.17002935	   1826.25716583	    -74.00943437	      0.00000000	      0.00000000	      0.00000000	     -0.81322550	      0.00000000	      0.53038352	      2.70600000	      0.00000000	      0.60000000	     -0.77769370	      7.20179594	     -0.23050049	      0.00000000	      0.00000000	      0.00000000
      0.38600000	   -233.33345865	   1848.53237100	    -65.91229468	      0.00000000	      0.00000000	      0.00000000	     -0.81239500	      0.00000000	      0.52973308	      2.70600000	      0.00000000	      0.60000000	     -0.91702176	      8.49907283	     -0.23675404	      0.00000000	      0.00000000	      0.00000000
      0.38700000	   -234.90090436	   1867.92098313	    -56.36081289	      0.00000000	      0.00000000	      0.00000000	     -0.81161290	      0.00000000	      0.52907890	      2.70600000	      0.00000000	      0.60000000	     -1.05530578	      9.78625348	     -0.22942639	      0.00000000	      0.00000000	      0.00000000
      0.38800000	   -233.14395668	   1884.71379946	    -45.58268387	      0.00000000	      0.00000000	      0.00000000	     -0.81088212	      0.00000000	      0.52842957	      2.70600000	      0.00000000	      0.60000000	     -1.18749375	     11.05577148	     -0.20715279	      0.00000000	      0.00000000	      0.00000000
      0.38900000	   -228.49027137	   1899.27230760	    -33.87471214	      0.00000000	      0.00000000	      0.00000000	     -0.81020315	      0.00000000	      0.52779448	      2.70600000	      0.00000000	      0.60000000	     -1.30913044	     12.30158734	     -0.16938579	      0.00000000	      0.00000000	      0.00000000
      0.39000000	   -221.47501649	   1912.00303798	    -21.58341004	      0.00000000	      0.00000000	      0.00000000	     -0.80957480	      0.00000000	      0.52718335	      2.70600000	      0.00000000	      0.60000000	     -1.41660655	     13.51839055	     -0.11650189	      0.00000000	      0.00000000	      0.00000000
      0.39100000	   -212.69022537	   1923.32301615	     -9.08147768	      0.00000000	      0.00000000	      0.00000000	     -0.80899394	      0.00000000	      0.52660467	      2.70600000	      0.00000000	      0.60000000	     -1.50736621	     14.70166303	     -0.04979059	      0.00000000	      0.00000000	      0.00000000
      0.39200000	   -202.73387394	   1933.62570398	      3.25464337	      0.00000000	      0.00000000	      0.00000000	     -0.80845557	      0.00000000	      0.52606512	      2.70600000	      0.00000000	      0.60000000	     -1.57988500	     15.84663990	      0.02858728	      0.00000000	      0.00000000	      0.00000000
      0.39300000	   -192.16602936	   1943.25189738	     15.06944852	      0.00000000	      0.00000000	      0.00000000	     -0.80795326	      0.00000000	      0.52556936	      2.70600000	      0.00000000	      0.60000000	     -1.63356629	     16.94750639	      0.11575691	      0.00000000	      0.00000000	      0.00000000
      0.39400000	   -181.47599556	   1952.47561286	     26.05033875	      0.00000000	      0.00000000	      0.00000000	     -0.80747960	      0.00000000	      0.52511971	      2.70600000	      0.00000000	      0.60000000	     -1.66866752	     17.99797312	      0.20837681	      0.00000000	      0.00000000	      0.00000000
      0.39500000	   -171.05733682	   1961.50444463	     35.93966121	      0.00000000	      0.00000000	      0.00000000	     -0.80702669	      0.00000000	      0.52471610	      2.70600000	      0.00000000	      0.60000000	     -1.68611521	     18.99161102	      0.30284125	      0.00000000	      0.00000000	      0.00000000
      0.39600000	   -161.19056897	   1970.47862042	     44.54474582	      0.00000000	      0.00000000	      0.00000000	     -0.80658669	      0.00000000	      0.52435668	      2.70600000	      0.00000000	      0.60000000	     -1.68725011	     19.92210624	      0.39552562	      0.00000000	      0.00000000	      0.00000000
      0.39700000	   -152.03738796	   1979.47101636	     51.74460972	      0.00000000	      0.00000000	      0.00000000	     -0.80615299	      0.00000000	      0.52403903	      2.70600000	      0.00000000	      0.60000000	     -1.67361952	     20.78412387	      0.48306176	      0.00000000	      0.00000000	      0.00000000
      0.39800000	   -143.64824184	   1988.49011073	     57.48999466	      0.00000000	      0.00000000	      0.00000000	     -0.80572116	      0.00000000	      0.52376008	      2.70600000	      0.00000000	      0.60000000	     -1.64682967	     21.57405258	      0.56255734	      0.00000000	      0.00000000	      0.00000000
      0.39900000	   -135.97565547	   1997.48771660	     61.80104889	      0.00000000	      0.00000000	      0.00000000	     -0.80528906	      0.00000000	      0.52351599	      2.70600000	      0.00000000	      0.60000000	     -1.60836779	     22.28986152	      0.63176831	      0.00000000	      0.00000000	      0.00000000
      0.40000000	   -128.89556678	   2006.37082701	     64.76528254	      0.00000000	      0.00000000	      0.00000000	     -0.80485516	      0.00000000	      0.52330368	      2.70600000	      0.00000000	      0.60000000	     -1.55946446	     22.92993032	      0.68923594	      0.00000000	      0.00000000	      0.00000000
      0.40100000	   -122.22687417	   2015.01356086	     66.53539618	      0.00000000	      0.00000000	      0.00000000	     -0.80441962	      0.00000000	      0.52312075	      2.70600000	      0.00000000	      0.60000000	     -1.50100229	     23.49308784	      0.73443602	      0.00000000	      0.00000000	      0.00000000
      0.40200000	   -115.74776549	   2023.26235369	     67.32160634	      0.00000000	      0.00000000	      0.00000000	     -0.80398451	      0.00000000	      0.52296423	      2.70600000	      0.00000000	      0.60000000	     -1.43348341	     23.98007389	      0.76786963	      0.00000000	      0.00000000	      0.00000000
      0.40300000	   -109.21521616	   2030.94031163	     67.37284535	      0.00000000	      0.00000000	      0.00000000	     -0.80355247	      0.00000000	      0.52283057	      2.70600000	      0.00000000	      0.60000000	     -1.35701446	     24.39263546	      0.79089977	      0.00000000	      0.00000000	      0.00000000
      0.40400000	   -102.38587177	   2037.85783768	     66.95681051	      0.00000000	      0.00000000	      0.00000000	     -0.80312571	      0.00000000	      0.52271583	      2.70600000	      0.00000000	      0.60000000	     -1.27135973	     24.73214750	      0.80551418	      0.00000000	      0.00000000	      0.00000000
      0.40500000	    -95.03742039	   2043.83993014	     66.33998288	      0.00000000	      0.00000000	      0.00000000	     -0.80270724	      0.00000000	      0.52261623	      2.70600000	      0.00000000	      0.60000000	     -1.17610545	     25.00020956	      0.81410401	      0.00000000	      0.00000000	      0.00000000
      0.40600000	    -86.98753790	   2048.74531507	     65.76490159	      0.00000000	      0.00000000	      0.00000000	     -0.80229964	      0.00000000	      0.52252830	      2.70600000	      0.00000000	      0.60000000	     -1.07086153	     25.19931037	      0.81917713	      0.00000000	      0.00000000	      0.00000000
      0.40700000	    -78.10798643	   2052.47624374	     65.42462972	      0.00000000	      0.00000000	      0.00000000	     -0.80190394	      0.00000000	      0.52244903	      2.70600000	      0.00000000	      0.60000000	     -0.95543972	     25.33208587	      0.82296608	      0.00000000	      0.00000000	      0.00000000
      0.40800000	    -68.33260793	   2054.99290288	     65.44549051	      0.00000000	      0.00000000	      0.00000000	     -0.80152081	      0.00000000	      0.52237661	      2.70600000	      0.00000000	      0.60000000	     -0.82999699	     25.40126781	      0.82714584	      0.00000000	      0.00000000	      0.00000000
      0.40900000	    -57.66261454	   2056.31830374	     65.87892959	      0.00000000	      0.00000000	      0.00000000	     -0.80115094	      0.00000000	      0.52231056	      2.70600000	      0.00000000	      0.60000000	     -0.69516675	     25.41025201	      0.83268426	      0.00000000	      0.00000000	      0.00000000
      0.41000000	    -46.16682452	   2056.52680261	     66.70112404	      0.00000000	      0.00000000	      0.00000000	     -0.80079430	      0.00000000	      0.52225115	      2.70600000	      0.00000000	      0.60000000	     -0.55214460	     25.36301838	      0.83977329	      0.00000000	      0.00000000	      0.00000000
